<svg xmlns="http://www.w3.org/2000/svg" viewBox="0 0 100 100">
  <circle cx="50" cy="50" r="50" fill="#ffdbce"/>
  <path d="M50 30c8.3 0 15 6.7 15 15s-6.7 15-15 15-15-6.7-15-15 6.7-15 15-15z" fill="#370e00"/>
  <path d="M50 65c-16.6 0-30 10-30 22.5V90h60v-2.5c0-12.5-13.4-22.5-30-22.5z" fill="#370e00"/>
  <path d="M33 37c-1-5-1-10 1-13 3-6 10-9 16-9s13 3 16 9c2 3 2 8 1 13 2-2 3-5 3-7 0-9-8-15-20-15s-20 6-20 15c0 2 1 5 3 7z" fill="#bf7658"/>
  <path d="M33 37c-1 5-2 15-1 20 1 3 2 5 2 5s0-10 1-15c0-3 0-8-2-10zM67 37c1 5 2 15 1 20-1 3-2 5-2 5s0-10-1-15c0-3 0-8 2-10z" fill="#bf7658"/>
</svg>
